<svg version="1.1" id="Layer_1" xmlns="http://www.w3.org/2000/svg" xmlns:xlink="http://www.w3.org/1999/xlink" x="0px" y="0px"
	 width="100%" viewBox="0 0 1480 822" enable-background="new 0 0 1480 822" xml:space="preserve">
<path fill="#111111" opacity="1.000000" stroke="none" 
	d="
M1481.000000,3.000000 
	C1481.000000,276.297638 1481.000000,549.595276 1481.000000,822.892944 
	C1480.869019,822.928650 1480.738159,822.995728 1480.607178,822.995728 
	C987.504883,823.000061 494.402649,823.000000 1.000000,823.000000 
	C1.000000,549.969177 1.000000,276.938202 1.447632,3.453310 
	C494.930176,2.999571 987.965088,2.999786 1481.000000,3.000000 
M234.882172,345.448120 
	C236.772293,344.152924 238.662415,342.857727 240.500595,341.598114 
	C238.964294,337.363770 237.508713,333.351929 236.063416,329.368378 
	C224.458771,332.727570 216.862778,342.423370 216.837814,354.599060 
	C216.719543,412.254974 216.681366,469.911499 216.827057,527.567200 
	C216.864502,542.383423 228.893890,554.045105 243.800018,554.053955 
	C348.114807,554.115967 452.429718,554.112244 556.744507,554.049438 
	C570.886719,554.040894 581.853882,544.324768 584.062988,530.428467 
	C584.230103,529.377197 584.602417,528.358643 585.002625,526.864502 
	C586.454956,527.973877 587.522827,528.713074 588.505676,529.551819 
	C604.330017,543.056152 620.123657,556.596497 635.986145,570.055786 
	C637.854553,571.641174 639.942505,573.136597 642.177490,574.090698 
	C649.860779,577.370544 661.009399,572.194153 660.959106,557.755188 
	C660.687378,479.769897 660.815002,401.783234 660.858154,323.797058 
	C660.861816,317.191772 659.317139,311.390625 652.959778,308.324036 
	C646.419922,305.169434 640.801086,307.441986 635.607239,311.992340 
	C625.462097,320.880554 615.155273,329.584320 604.903137,338.350128 
	C598.390442,343.918610 591.855713,349.461304 584.723633,355.532440 
	C583.130310,342.629181 577.484741,333.749176 565.366760,329.244690 
	C564.101318,333.764069 562.909424,338.020569 561.627502,342.598846 
	C568.618408,345.836914 570.497375,351.624634 570.489685,358.625610 
	C570.429260,413.782440 570.472534,468.939362 570.441833,524.096252 
	C570.435852,534.853027 565.222412,540.125122 554.529663,540.127930 
	C451.714539,540.154785 348.899445,540.154785 246.084320,540.126648 
	C235.654373,540.123840 230.407333,534.897034 230.397690,524.387451 
	C230.346588,468.730682 230.295929,413.073486 230.544617,357.417786 
	C230.561707,353.593719 233.019699,349.780579 234.882172,345.448120 
M510.953247,237.625443 
	C477.459320,217.906311 432.428497,225.569000 407.032196,255.309235 
	C381.359680,285.372986 379.657288,328.178528 402.863464,360.127441 
	C425.150879,390.811310 465.810394,402.386566 501.803711,387.221375 
	C532.540649,374.270874 549.996216,350.184082 552.646851,317.174561 
	C555.398987,282.900757 541.034912,256.216675 510.953247,237.625443 
M1031.516846,278.537231 
	C1026.204346,294.458740 1020.891968,310.380219 1015.579529,326.301727 
	C1015.121826,326.236572 1014.664124,326.171448 1014.206421,326.106293 
	C1013.489990,324.294922 1012.691833,322.511108 1012.069458,320.667938 
	C1003.616821,295.633545 995.223511,270.578979 986.672180,245.578384 
	C986.129150,243.990646 984.429871,241.639282 983.226990,241.613937 
	C969.777405,241.330658 956.319641,241.435104 941.961853,241.435104 
	C961.798584,301.392761 981.394043,360.620972 1001.031982,419.977783 
	C1008.534058,419.977783 1015.707092,419.666046 1022.835449,420.095856 
	C1027.044556,420.349640 1028.475098,418.702972 1029.702271,414.977478 
	C1047.955933,359.561707 1066.371948,304.199432 1084.739380,248.821121 
	C1085.492432,246.550644 1086.144897,244.246841 1087.010498,241.414276 
	C1072.838135,241.414276 1059.526978,241.312683 1046.222900,241.574280 
	C1044.919189,241.599930 1042.995728,243.630783 1042.485474,245.117279 
	C1038.765137,255.953735 1035.333252,266.889160 1031.516846,278.537231 
M1184.877441,354.500000 
	C1184.877441,330.893860 1184.877441,307.287750 1184.877441,283.053162 
	C1198.878906,283.053162 1212.404663,283.053162 1225.791748,283.053162 
	C1225.791748,268.855194 1225.791748,255.292145 1225.791748,241.718002 
	C1184.350586,241.718002 1143.282227,241.718002 1101.960205,241.718002 
	C1101.960205,255.598099 1101.960205,269.177429 1101.960205,283.295349 
	C1115.734741,283.295349 1129.312134,283.295349 1143.119385,283.295349 
	C1143.119385,306.473236 1143.119507,329.113953 1143.119507,351.754669 
	C1143.119507,374.345764 1143.119385,396.936829 1143.119385,419.655762 
	C1157.309937,419.655762 1170.864868,419.655762 1184.877441,419.655762 
	C1184.877441,398.060577 1184.877441,376.780304 1184.877441,354.500000 
M365.694550,339.220642 
	C366.157196,338.151947 366.610352,337.079041 367.083893,336.015198 
	C378.548615,310.259064 372.146057,281.772583 350.566071,262.533325 
	C330.993439,245.083603 300.797363,242.405487 277.575684,257.001129 
	C256.111206,270.492279 245.971710,290.644440 248.158310,315.843536 
	C250.251038,339.960785 262.940887,357.747772 285.176819,367.568726 
	C315.581573,380.997589 348.433929,369.306763 365.694550,339.220642 
M398.055084,400.529480 
	C390.345520,395.939545 382.288605,391.836365 375.009918,386.642578 
	C364.774414,379.338837 351.271484,385.813660 351.671173,400.135345 
	C352.396271,426.114807 351.867126,452.128967 351.880585,478.128662 
	C351.888184,492.768890 362.255737,499.119812 374.866547,491.716858 
	C397.111420,478.658386 419.177765,465.289703 441.157654,451.788483 
	C452.028046,445.111389 451.892548,433.178253 440.996368,426.453522 
	C426.974976,417.799988 412.766632,409.449280 398.055084,400.529480 
M808.855713,330.499298 
	C808.855713,360.232452 808.855713,389.965607 808.855713,419.605896 
	C813.434998,419.605896 817.339172,419.605896 821.738770,419.605896 
	C821.738770,364.362427 821.738770,309.468109 821.738770,254.003906 
	C843.130737,254.003906 864.016541,254.003906 884.669067,254.003906 
	C884.669067,249.521622 884.669067,245.619568 884.669067,241.818954 
	C844.392822,241.818954 804.492188,241.818954 764.629272,241.818954 
	C764.629272,246.091232 764.629272,249.980301 764.629272,254.288513 
	C779.404236,254.288513 793.830933,254.288513 808.855774,254.288513 
	C808.855774,279.644745 808.855774,304.571991 808.855713,330.499298 
M840.580078,396.500122 
	C840.580139,359.834503 840.580139,323.168854 840.580139,286.503235 
	C840.580139,278.342102 835.785217,270.756622 828.107300,266.825958 
	C828.107300,317.782898 828.107300,368.713226 828.107300,419.680054 
	C832.296753,419.680054 836.221619,419.680054 840.580017,419.680054 
	C840.580017,412.102448 840.580017,404.801300 840.580078,396.500122 
M943.832031,523.298218 
	C949.037292,533.146729 954.492065,542.874573 959.337402,552.897095 
	C961.591614,557.560059 964.428040,558.811768 969.548645,557.109131 
	C962.871460,545.012817 956.328857,533.160278 949.657715,521.074829 
	C956.787964,516.909241 961.785095,511.363342 964.097961,503.680206 
	C967.995422,490.733185 961.960388,476.010468 950.808289,472.248871 
	C940.698914,468.838959 930.210693,470.209290 919.727051,470.279205 
	C919.727051,499.673431 919.727051,528.539185 919.727051,557.467285 
	C921.670959,557.467285 923.258667,557.467285 925.400208,557.467285 
	C925.400208,545.441650 925.400208,533.711975 925.400208,520.890442 
	C931.834167,521.470947 937.645996,521.995422 943.832031,523.298218 
M1231.084229,552.187561 
	C1225.334106,541.790100 1219.583862,531.392639 1215.444092,523.907166 
	C1219.230835,518.773987 1222.276367,515.016235 1224.920898,510.994843 
	C1234.623535,496.240051 1228.483887,475.347839 1212.683716,471.781219 
	C1203.482666,469.704193 1193.701172,470.198792 1184.013794,469.524689 
	C1184.013794,499.635712 1184.013794,528.518799 1184.013794,557.440002 
	C1185.924072,557.440002 1187.502930,557.440002 1189.657471,557.440002 
	C1189.657471,545.397278 1189.657471,533.666016 1189.657471,521.372925 
	C1194.004639,521.372925 1197.814453,521.653870 1201.563599,521.296936 
	C1205.622192,520.910522 1207.873901,522.386963 1209.679810,526.055115 
	C1214.232544,535.301636 1219.190918,544.348877 1224.021118,553.457886 
	C1226.659058,558.432434 1227.630127,558.757324 1233.488770,556.769165 
	C1232.799194,555.434692 1232.123047,554.126221 1231.084229,552.187561 
M1087.765259,481.532257 
	C1087.765259,477.900177 1087.765259,474.268097 1087.765259,470.419830 
	C1085.532715,470.419830 1083.813843,470.419830 1082.044312,470.419830 
	C1082.044312,499.629700 1082.044312,528.529236 1082.044312,557.809814 
	C1084.129028,557.659180 1085.838745,557.535706 1087.666382,557.403687 
	C1088.429932,541.038757 1083.643799,523.752136 1099.840698,511.940948 
	C1100.506226,513.263733 1101.311523,514.680603 1101.953003,516.168152 
	C1107.287354,528.538635 1112.779419,540.846619 1117.803467,553.342407 
	C1119.582764,557.767944 1122.007202,558.604492 1126.416992,557.093811 
	C1119.841064,542.046387 1113.646118,527.191467 1106.820679,512.632202 
	C1104.522583,507.730286 1104.549561,504.094452 1107.447632,499.483551 
	C1113.344360,490.101776 1118.562012,480.293213 1124.091553,470.604309 
	C1119.052734,469.100555 1116.310791,470.817657 1113.859131,474.845490 
	C1106.246582,487.351990 1098.202759,499.595825 1090.364624,511.965881 
	C1089.936890,512.640930 1089.857910,513.536865 1089.616577,514.329956 
	C1088.999512,513.959656 1088.382324,513.589355 1087.765259,513.218994 
	C1087.765259,502.986450 1087.765259,492.753937 1087.765259,481.532257 
M1147.510498,557.756653 
	C1157.292847,557.756653 1167.075317,557.756653 1177.048828,557.756653 
	C1177.048828,555.192871 1177.048828,553.161377 1177.048828,550.725037 
	C1164.583618,550.725037 1152.480835,550.725037 1140.281738,550.725037 
	C1140.281738,538.923096 1140.281738,527.533813 1140.281738,515.645874 
	C1152.327881,515.645874 1164.069458,515.645874 1175.947266,515.645874 
	C1175.947266,513.565247 1175.947266,511.988983 1175.947266,509.982697 
	C1163.880127,509.982697 1152.121948,509.982697 1140.258545,509.982697 
	C1140.258545,498.829712 1140.258545,488.110779 1140.258545,476.947571 
	C1152.465332,476.947571 1164.387451,476.947571 1176.332764,476.947571 
	C1176.332764,474.460999 1176.332764,472.430817 1176.332764,470.450562 
	C1162.014771,470.450562 1148.109985,470.450562 1134.200928,470.450562 
	C1134.200928,499.676056 1134.200928,528.568542 1134.200928,557.756653 
	C1138.544189,557.756653 1142.530762,557.756653 1147.510498,557.756653 
M1029.917480,527.479370 
	C1029.961060,531.641113 1029.790894,535.818237 1030.088257,539.961792 
	C1030.968750,552.228271 1037.115356,558.296814 1048.967773,558.705872 
	C1051.110962,558.779907 1053.286499,558.447205 1055.421631,558.130859 
	C1062.614136,557.065186 1067.549927,552.911499 1068.833252,545.928101 
	C1069.836548,540.468018 1069.943604,534.843201 1070.456665,529.206055 
	C1068.078247,529.206055 1066.507080,529.206055 1064.924561,529.206055 
	C1064.603760,533.503723 1064.377808,537.486572 1063.994751,541.454285 
	C1063.307495,548.573425 1059.154907,552.529907 1052.032104,552.989319 
	C1042.338257,553.614502 1037.720215,551.037598 1036.599976,542.927856 
	C1035.627563,535.886780 1035.829712,528.663574 1035.784058,521.519104 
	C1035.712646,510.376923 1035.564331,499.220551 1036.027466,488.094269 
	C1036.405884,479.004608 1041.658813,474.446442 1050.489380,474.440216 
	C1058.683594,474.434479 1063.317627,478.937561 1064.149170,487.760864 
	C1064.458496,491.041962 1064.692993,494.330109 1064.967285,497.684875 
	C1066.728516,497.684875 1068.303345,497.684875 1070.471191,497.684875 
	C1069.934082,492.564606 1069.821655,487.711212 1068.849487,483.036530 
	C1066.992065,474.103058 1061.457520,469.958893 1051.709595,469.494965 
	C1040.991211,468.984894 1034.002686,472.806519 1031.509766,481.213257 
	C1030.394531,484.974335 1030.055786,489.065613 1029.986572,493.017883 
	C1029.791260,504.170715 1029.917847,515.329224 1029.917480,527.479370 
M981.578003,554.154114 
	C983.403503,546.799133 985.229004,539.444153 987.079224,531.989807 
	C995.693726,531.989807 1003.848328,531.842712 1011.987244,532.133789 
	C1013.350952,532.182678 1015.430664,533.893311 1015.839172,535.242004 
	C1017.661804,541.260010 1019.265503,547.375366 1020.418579,553.554382 
	C1021.221191,557.855774 1023.307678,558.549866 1027.594482,557.099365 
	C1019.666626,528.102539 1011.765381,499.202881 1003.930420,470.545990 
	C1000.106628,469.411041 998.567444,470.374695 997.578735,474.080170 
	C991.068665,498.476654 984.238525,522.787598 977.532471,547.131897 
	C976.588867,550.557556 975.752258,554.012695 974.866150,557.454224 
	C975.357971,557.862488 975.849854,558.270752 976.341675,558.679016 
	C978.008179,557.420837 979.674683,556.162659 981.578003,554.154114 
M839.817383,532.924011 
	C838.777527,536.615845 837.737671,540.307617 836.697815,543.999451 
	C836.221436,543.975220 835.744995,543.950928 835.268616,543.926636 
	C828.769226,519.361938 822.269836,494.797241 815.726440,470.066101 
	C813.462219,470.166870 811.737061,470.243622 809.943237,470.323456 
	C809.987976,471.322113 809.919128,471.832642 810.044495,472.289917 
	C817.595947,499.833130 825.135193,527.379944 832.826721,554.884033 
	C833.153442,556.052368 835.087952,557.736084 835.952576,557.564331 
	C837.269104,557.302856 838.984009,555.822876 839.357605,554.523376 
	C844.680298,536.005859 849.826660,517.437317 854.969421,498.868378 
	C857.565918,489.493347 860.069763,480.092682 862.611023,470.719788 
	C857.930237,469.009583 856.375793,470.794098 855.334961,474.840332 
	C850.410950,493.981506 845.176636,513.042908 839.817383,532.924011 
M886.230957,540.497864 
	C886.230957,546.102112 886.230957,551.706360 886.230957,557.530457 
	C888.845520,557.530457 890.779785,557.530457 893.261597,557.530457 
	C893.261597,530.614502 893.261597,503.915680 893.261597,476.840454 
	C899.741455,476.840454 905.681030,476.840454 911.702637,476.840454 
	C911.702637,474.405334 911.702637,472.359985 911.702637,470.529175 
	C896.773804,470.529175 882.222351,470.529175 867.359497,470.529175 
	C867.466248,472.873871 867.552917,474.776764 867.659912,477.126587 
	C874.159058,477.126587 880.084229,477.126587 886.231018,477.126587 
	C886.231018,498.235229 886.231018,518.867004 886.230957,540.497864 
M785.172607,495.500793 
	C785.172607,489.412262 785.172607,483.323700 785.172607,476.872467 
	C791.700806,476.872467 797.646545,476.872467 803.727417,476.872467 
	C803.727417,474.440887 803.727417,472.385284 803.727417,470.510223 
	C788.819824,470.510223 774.264771,470.510223 759.793213,470.510223 
	C759.793213,472.820343 759.793213,474.718811 759.793213,477.091156 
	C766.121216,477.091156 772.044739,477.091156 778.412964,477.091156 
	C778.412964,504.130951 778.412964,530.693787 778.412964,557.510864 
	C780.807007,557.510864 782.736694,557.510864 785.172546,557.510864 
	C785.172546,537.056274 785.172546,516.778564 785.172607,495.500793 
M878.273071,260.691833 
	C863.460693,260.691833 848.648254,260.691833 833.835876,260.691833 
	C833.452576,261.354492 833.069336,262.017120 832.686096,262.679779 
	C834.802795,264.262695 837.347839,265.501984 838.949341,267.498230 
	C842.574097,272.016266 846.773499,273.917969 852.687073,273.436005 
	C859.455994,272.884338 866.304382,273.308167 873.118286,273.308167 
	C877.011841,273.308167 880.905457,273.308167 884.811890,273.308167 
	C884.811890,268.717529 884.811890,264.932037 884.811890,260.691895 
	C882.818665,260.691895 881.016541,260.691895 878.273071,260.691833 
M800.759705,260.712738 
	C788.683289,260.712738 776.606934,260.712738 764.532349,260.712738 
	C764.532349,265.244537 764.532349,269.018280 764.532349,272.893433 
	C777.292542,272.893433 789.813782,272.893433 803.000000,272.893433 
	C802.494080,268.564331 802.045349,264.724854 800.759705,260.712738 
z"/>
<path fill="#616161" opacity="1.000000" stroke="none" 
	d="
M1481.000000,2.500009 
	C987.965088,2.999786 494.930176,2.999571 1.447632,2.999678 
	C1.333333,2.333333 1.548027,1.216341 2.023962,1.090954 
	C3.114909,0.803541 4.333333,1.000000 5.500000,1.000000 
	C495.833344,1.000000 986.166687,0.999107 1476.500000,1.041192 
	C1478.000000,1.041321 1479.500000,1.666684 1481.000000,2.500009 
z"/>
<path fill="#F8F8F8" opacity="1.000000" stroke="none" 
	d="
M234.612350,345.705261 
	C233.019699,349.780579 230.561707,353.593719 230.544617,357.417786 
	C230.295929,413.073486 230.346588,468.730682 230.397690,524.387451 
	C230.407333,534.897034 235.654373,540.123840 246.084320,540.126648 
	C348.899445,540.154785 451.714539,540.154785 554.529663,540.127930 
	C565.222412,540.125122 570.435852,534.853027 570.441833,524.096252 
	C570.472534,468.939362 570.429260,413.782440 570.489685,358.625610 
	C570.497375,351.624634 568.618408,345.836914 561.627502,342.598846 
	C562.909424,338.020569 564.101318,333.764069 565.366760,329.244690 
	C577.484741,333.749176 583.130310,342.629181 584.723633,355.532440 
	C591.855713,349.461304 598.390442,343.918610 604.903137,338.350128 
	C615.155273,329.584320 625.462097,320.880554 635.607239,311.992340 
	C640.801086,307.441986 646.419922,305.169434 652.959778,308.324036 
	C659.317139,311.390625 660.861816,317.191772 660.858154,323.797058 
	C660.815002,401.783234 660.687378,479.769897 660.959106,557.755188 
	C661.009399,572.194153 649.860779,577.370544 642.177490,574.090698 
	C639.942505,573.136597 637.854553,571.641174 635.986145,570.055786 
	C620.123657,556.596497 604.330017,543.056152 588.505676,529.551819 
	C587.522827,528.713074 586.454956,527.973877 585.002625,526.864502 
	C584.602417,528.358643 584.230103,529.377197 584.062988,530.428467 
	C581.853882,544.324768 570.886719,554.040894 556.744507,554.049438 
	C452.429718,554.112244 348.114807,554.115967 243.800018,554.053955 
	C228.893890,554.045105 216.864502,542.383423 216.827057,527.567200 
	C216.681366,469.911499 216.719543,412.254974 216.837814,354.599060 
	C216.862778,342.423370 224.458771,332.727570 236.063416,329.368378 
	C237.508713,333.351929 238.964294,337.363770 240.500595,341.598114 
	C238.662415,342.857727 236.772293,344.152924 234.612350,345.705261 
M584.359314,406.499573 
	C584.359375,438.650421 584.406799,470.801422 584.288025,502.951813 
	C584.275818,506.259583 585.228821,508.503815 587.755859,510.635742 
	C601.354431,522.108215 614.813354,533.746155 628.339111,545.305115 
	C634.195618,550.310059 640.096924,555.262817 646.426147,560.618591 
	C646.426147,480.465607 646.426147,401.245758 646.426147,321.528046 
	C645.334045,322.264923 644.753845,322.579315 644.263367,322.998535 
	C625.025391,339.440796 605.757507,355.848694 586.645996,372.436737 
	C585.291138,373.612732 584.505859,376.108856 584.459534,378.015564 
	C584.236816,387.172272 584.359253,396.337402 584.359314,406.499573 
z"/>
<path fill="#F8F8F8" opacity="1.000000" stroke="none" 
	d="
M511.270325,237.809113 
	C541.034912,256.216675 555.398987,282.900757 552.646851,317.174561 
	C549.996216,350.184082 532.540649,374.270874 501.803711,387.221375 
	C465.810394,402.386566 425.150879,390.811310 402.863464,360.127441 
	C379.657288,328.178528 381.359680,285.372986 407.032196,255.309235 
	C432.428497,225.569000 477.459320,217.906311 511.270325,237.809113 
M467.588409,240.814163 
	C437.775421,242.040070 412.841431,260.923431 403.822418,289.106323 
	C392.486908,324.527985 411.584076,363.693817 446.027863,375.664398 
	C482.546387,388.355957 521.705383,370.671173 534.739014,334.984467 
	C552.122375,287.388123 516.708252,239.799194 467.588409,240.814163 
z"/>
<path fill="#EAEAEA" opacity="1.000000" stroke="none" 
	d="
M1031.663574,278.165283 
	C1035.333252,266.889160 1038.765137,255.953735 1042.485474,245.117279 
	C1042.995728,243.630783 1044.919189,241.599930 1046.222900,241.574280 
	C1059.526978,241.312683 1072.838135,241.414276 1087.010498,241.414276 
	C1086.144897,244.246841 1085.492432,246.550644 1084.739380,248.821121 
	C1066.371948,304.199432 1047.955933,359.561707 1029.702271,414.977478 
	C1028.475098,418.702972 1027.044556,420.349640 1022.835449,420.095856 
	C1015.707092,419.666046 1008.534058,419.977783 1001.031982,419.977783 
	C981.394043,360.620972 961.798584,301.392761 941.961853,241.435104 
	C956.319641,241.435104 969.777405,241.330658 983.226990,241.613937 
	C984.429871,241.639282 986.129150,243.990646 986.672180,245.578384 
	C995.223511,270.578979 1003.616821,295.633545 1012.069458,320.667938 
	C1012.691833,322.511108 1013.489990,324.294922 1014.206421,326.106293 
	C1014.664124,326.171448 1015.121826,326.236572 1015.579529,326.301727 
	C1020.891968,310.380219 1026.204346,294.458740 1031.663574,278.165283 
M1015.506958,382.847015 
	C1030.354370,337.958313 1045.201904,293.069641 1060.182129,247.779388 
	C1057.887817,247.672729 1056.540527,247.767914 1055.257935,247.523254 
	C1049.575806,246.439240 1047.322144,249.018173 1045.593384,254.402405 
	C1036.021973,284.213196 1025.986938,313.875183 1016.099426,343.584412 
	C1012.662170,353.912476 1009.192749,364.229797 1005.422791,375.493774 
	C1004.342346,372.538544 1003.557739,370.549042 1002.882568,368.523041 
	C989.910767,329.598206 976.968140,290.663635 963.930542,251.760895 
	C963.415894,250.225327 962.188293,247.992935 961.007141,247.795578 
	C957.732239,247.248367 954.306152,247.605896 950.279663,247.605896 
	C968.720825,303.279114 986.827637,357.942841 1005.336731,413.821136 
	C1008.936462,402.859283 1012.098694,393.229767 1015.506958,382.847015 
M1037.745239,372.105164 
	C1051.303833,330.842804 1064.862305,289.580444 1078.449951,248.229492 
	C1067.195801,246.194443 1066.826294,246.409485 1063.811279,256.139252 
	C1063.664673,256.612183 1063.375488,257.040131 1063.219116,257.511047 
	C1046.515625,307.813477 1029.817871,358.117767 1013.123901,408.423370 
	C1012.565369,410.106567 1012.050232,411.804199 1011.442810,413.722595 
	C1015.954224,413.722595 1019.878662,413.722595 1023.895508,413.722595 
	C1028.440063,399.954926 1032.918457,386.387726 1037.745239,372.105164 
M985.665405,260.948059 
	C984.500183,257.480072 983.471252,253.956635 982.095337,250.574356 
	C981.617065,249.398514 980.361206,247.835846 979.320801,247.721542 
	C975.990662,247.355774 972.595093,247.585724 968.681152,247.585724 
	C980.921814,284.263611 992.843384,319.985535 1005.101990,356.717133 
	C1011.944214,341.179901 1011.923645,340.940155 1007.179443,326.533813 
	C1000.065308,304.930847 993.003662,283.310608 985.665405,260.948059 
z"/>
<path fill="#ECECEC" opacity="1.000000" stroke="none" 
	d="
M1184.877441,355.000000 
	C1184.877441,376.780304 1184.877441,398.060577 1184.877441,419.655762 
	C1170.864868,419.655762 1157.309937,419.655762 1143.119385,419.655762 
	C1143.119385,396.936829 1143.119507,374.345764 1143.119507,351.754669 
	C1143.119507,329.113953 1143.119385,306.473236 1143.119385,283.295349 
	C1129.312134,283.295349 1115.734741,283.295349 1101.960205,283.295349 
	C1101.960205,269.177429 1101.960205,255.598099 1101.960205,241.718002 
	C1143.282227,241.718002 1184.350586,241.718002 1225.791748,241.718002 
	C1225.791748,255.292145 1225.791748,268.855194 1225.791748,283.053162 
	C1212.404663,283.053162 1198.878906,283.053162 1184.877441,283.053162 
	C1184.877441,307.287750 1184.877441,330.893860 1184.877441,355.000000 
M1149.136353,280.500122 
	C1149.136353,324.918243 1149.136353,369.336365 1149.136353,413.671753 
	C1153.445801,413.671753 1157.042480,413.671753 1160.950684,413.671753 
	C1160.950684,387.739349 1160.950684,362.105713 1160.950684,336.472076 
	C1160.950684,310.879028 1160.950684,285.285950 1160.950684,259.122223 
	C1181.016113,259.122223 1200.414307,259.122223 1219.767700,259.122223 
	C1219.767700,254.980408 1219.767700,251.424942 1219.767700,247.951736 
	C1182.325806,247.951736 1145.260498,247.951736 1108.240112,247.951736 
	C1108.240112,251.901367 1108.240112,255.448441 1108.240112,259.514282 
	C1122.030151,259.514282 1135.440063,259.514282 1149.136353,259.514282 
	C1149.136353,266.526550 1149.136353,273.013367 1149.136353,280.500122 
M1167.020386,299.500000 
	C1167.020386,337.554932 1167.020386,375.609863 1167.020386,413.695068 
	C1171.212036,413.695068 1174.787598,413.695068 1178.403442,413.695068 
	C1178.556152,412.956635 1178.738037,412.487152 1178.738281,412.017609 
	C1178.755737,369.565277 1178.767090,327.112915 1178.723633,284.660614 
	C1178.722290,283.415222 1178.510864,281.818970 1177.744995,280.986542 
	C1174.562866,277.527954 1171.130371,274.299866 1167.020386,270.224365 
	C1167.020386,280.334167 1167.020386,289.417084 1167.020386,299.500000 
M1202.499268,277.145050 
	C1208.266479,277.145050 1214.033691,277.145050 1219.883789,277.145050 
	C1219.883789,272.961853 1219.883789,269.395325 1219.883789,265.783569 
	C1204.006958,265.783569 1188.419922,265.783569 1172.673584,265.783569 
	C1177.760864,274.034149 1184.012329,279.107941 1194.029907,277.212738 
	C1196.438110,276.757111 1199.005737,277.145050 1202.499268,277.145050 
M1109.019653,265.473114 
	C1108.495239,269.194031 1107.970947,272.914948 1107.433960,276.725494 
	C1119.974121,276.725494 1131.496216,276.725494 1142.940674,276.725494 
	C1142.940674,272.851501 1142.940674,269.392761 1142.940674,265.347809 
	C1131.803833,265.347809 1120.875366,265.347809 1109.019653,265.473114 
z"/>
<path fill="#F7F7F7" opacity="1.000000" stroke="none" 
	d="
M365.494537,339.532715 
	C348.433929,369.306763 315.581573,380.997589 285.176819,367.568726 
	C262.940887,357.747772 250.251038,339.960785 248.158310,315.843536 
	C245.971710,290.644440 256.111206,270.492279 277.575684,257.001129 
	C300.797363,242.405487 330.993439,245.083603 350.566071,262.533325 
	C372.146057,281.772583 378.548615,310.259064 367.083893,336.015198 
	C366.610352,337.079041 366.157196,338.151947 365.494537,339.532715 
M261.977875,316.097137 
	C267.267914,351.383972 303.215851,369.540344 334.231903,352.590729 
	C354.353516,341.594696 363.926544,315.821442 355.991302,294.008209 
	C347.736267,271.315796 324.031769,257.566315 301.257721,262.321381 
	C275.026917,267.798157 259.537659,290.819489 261.977875,316.097137 
z"/>
<path fill="#F7F7F7" opacity="1.000000" stroke="none" 
	d="
M398.346954,400.748779 
	C412.766632,409.449280 426.974976,417.799988 440.996368,426.453522 
	C451.892548,433.178253 452.028046,445.111389 441.157654,451.788483 
	C419.177765,465.289703 397.111420,478.658386 374.866547,491.716858 
	C362.255737,499.119812 351.888184,492.768890 351.880585,478.128662 
	C351.867126,452.128967 352.396271,426.114807 351.671173,400.135345 
	C351.271484,385.813660 364.774414,379.338837 375.009918,386.642578 
	C382.288605,391.836365 390.345520,395.939545 398.346954,400.748779 
M385.910187,409.545654 
	C379.467590,405.713409 373.024994,401.881165 366.237061,397.843506 
	C366.237061,425.898956 366.237061,452.882019 366.237061,480.677124 
	C389.415375,466.718048 411.925842,453.161163 435.130768,439.186066 
	C418.349670,429.102905 402.426544,419.535248 385.910187,409.545654 
z"/>
<path fill="#F2F2F2" opacity="1.000000" stroke="none" 
	d="
M808.855713,329.999268 
	C808.855774,304.571991 808.855774,279.644745 808.855774,254.288513 
	C793.830933,254.288513 779.404236,254.288513 764.629272,254.288513 
	C764.629272,249.980301 764.629272,246.091232 764.629272,241.818954 
	C804.492188,241.818954 844.392822,241.818954 884.669067,241.818954 
	C884.669067,245.619568 884.669067,249.521622 884.669067,254.003906 
	C864.016541,254.003906 843.130737,254.003906 821.738770,254.003906 
	C821.738770,309.468109 821.738770,364.362427 821.738770,419.605896 
	C817.339172,419.605896 813.434998,419.605896 808.855713,419.605896 
	C808.855713,389.965607 808.855713,360.232452 808.855713,329.999268 
z"/>
<path fill="#F1F1F1" opacity="1.000000" stroke="none" 
	d="
M840.580078,397.000122 
	C840.580017,404.801300 840.580017,412.102448 840.580017,419.680054 
	C836.221619,419.680054 832.296753,419.680054 828.107300,419.680054 
	C828.107300,368.713226 828.107300,317.782898 828.107300,266.825958 
	C835.785217,270.756622 840.580139,278.342102 840.580139,286.503235 
	C840.580139,323.168854 840.580139,359.834503 840.580078,397.000122 
z"/>
<path fill="#E8E8E8" opacity="1.000000" stroke="none" 
	d="
M943.644958,522.909058 
	C937.645996,521.995422 931.834167,521.470947 925.400208,520.890442 
	C925.400208,533.711975 925.400208,545.441650 925.400208,557.467285 
	C923.258667,557.467285 921.670959,557.467285 919.727051,557.467285 
	C919.727051,528.539185 919.727051,499.673431 919.727051,470.279205 
	C930.210693,470.209290 940.698914,468.838959 950.808289,472.248871 
	C961.960388,476.010468 967.995422,490.733185 964.097961,503.680206 
	C961.785095,511.363342 956.787964,516.909241 949.657715,521.074829 
	C956.328857,533.160278 962.871460,545.012817 969.548645,557.109131 
	C964.428040,558.811768 961.591614,557.560059 959.337402,552.897095 
	C954.492065,542.874573 949.037292,533.146729 943.644958,522.909058 
M958.334595,498.272705 
	C959.530029,490.948151 957.606567,484.520111 951.724854,479.992859 
	C943.783447,473.880157 934.492126,475.889984 925.592407,476.034088 
	C925.592407,489.384552 925.592407,502.137299 925.592407,515.132019 
	C931.193909,515.132019 936.499573,515.392212 941.770630,515.076355 
	C951.877625,514.470581 957.063354,509.302948 958.334595,498.272705 
z"/>
<path fill="#E9E9E9" opacity="1.000000" stroke="none" 
	d="
M1231.265503,552.502686 
	C1232.123047,554.126221 1232.799194,555.434692 1233.488770,556.769165 
	C1227.630127,558.757324 1226.659058,558.432434 1224.021118,553.457886 
	C1219.190918,544.348877 1214.232544,535.301636 1209.679810,526.055115 
	C1207.873901,522.386963 1205.622192,520.910522 1201.563599,521.296936 
	C1197.814453,521.653870 1194.004639,521.372925 1189.657471,521.372925 
	C1189.657471,533.666016 1189.657471,545.397278 1189.657471,557.440002 
	C1187.502930,557.440002 1185.924072,557.440002 1184.013794,557.440002 
	C1184.013794,528.518799 1184.013794,499.635712 1184.013794,469.524689 
	C1193.701172,470.198792 1203.482666,469.704193 1212.683716,471.781219 
	C1228.483887,475.347839 1234.623535,496.240051 1224.920898,510.994843 
	C1222.276367,515.016235 1219.230835,518.773987 1215.444092,523.907166 
	C1219.583862,531.392639 1225.334106,541.790100 1231.265503,552.502686 
M1198.482666,515.419434 
	C1200.973022,515.319641 1203.468994,515.294739 1205.952759,515.106934 
	C1215.513672,514.383789 1220.942017,509.584015 1222.263306,500.761292 
	C1224.045776,488.857635 1220.450684,479.967987 1211.252930,477.447876 
	C1204.436646,475.580231 1197.018311,475.909943 1189.882324,475.262115 
	C1189.882324,489.355499 1189.882324,502.101562 1189.882324,515.419495 
	C1192.598999,515.419495 1195.046753,515.419495 1198.482666,515.419434 
z"/>
<path fill="#EAEAEA" opacity="1.000000" stroke="none" 
	d="
M1087.765259,482.026825 
	C1087.765259,492.753937 1087.765259,502.986450 1087.765259,513.218994 
	C1088.382324,513.589355 1088.999512,513.959656 1089.616577,514.329956 
	C1089.857910,513.536865 1089.936890,512.640930 1090.364624,511.965881 
	C1098.202759,499.595825 1106.246582,487.351990 1113.859131,474.845490 
	C1116.310791,470.817657 1119.052734,469.100555 1124.091553,470.604309 
	C1118.562012,480.293213 1113.344360,490.101776 1107.447632,499.483551 
	C1104.549561,504.094452 1104.522583,507.730286 1106.820679,512.632202 
	C1113.646118,527.191467 1119.841064,542.046387 1126.416992,557.093811 
	C1122.007202,558.604492 1119.582764,557.767944 1117.803467,553.342407 
	C1112.779419,540.846619 1107.287354,528.538635 1101.953003,516.168152 
	C1101.311523,514.680603 1100.506226,513.263733 1099.840698,511.940948 
	C1083.643799,523.752136 1088.429932,541.038757 1087.666382,557.403687 
	C1085.838745,557.535706 1084.129028,557.659180 1082.044312,557.809814 
	C1082.044312,528.529236 1082.044312,499.629700 1082.044312,470.419830 
	C1083.813843,470.419830 1085.532715,470.419830 1087.765259,470.419830 
	C1087.765259,474.268097 1087.765259,477.900177 1087.765259,482.026825 
z"/>
<path fill="#EEEEEE" opacity="1.000000" stroke="none" 
	d="
M1147.013916,557.756653 
	C1142.530762,557.756653 1138.544189,557.756653 1134.200928,557.756653 
	C1134.200928,528.568542 1134.200928,499.676056 1134.200928,470.450562 
	C1148.109985,470.450562 1162.014771,470.450562 1176.332764,470.450562 
	C1176.332764,472.430817 1176.332764,474.460999 1176.332764,476.947571 
	C1164.387451,476.947571 1152.465332,476.947571 1140.258545,476.947571 
	C1140.258545,488.110779 1140.258545,498.829712 1140.258545,509.982697 
	C1152.121948,509.982697 1163.880127,509.982697 1175.947266,509.982697 
	C1175.947266,511.988983 1175.947266,513.565247 1175.947266,515.645874 
	C1164.069458,515.645874 1152.327881,515.645874 1140.281738,515.645874 
	C1140.281738,527.533813 1140.281738,538.923096 1140.281738,550.725037 
	C1152.480835,550.725037 1164.583618,550.725037 1177.048828,550.725037 
	C1177.048828,553.161377 1177.048828,555.192871 1177.048828,557.756653 
	C1167.075317,557.756653 1157.292847,557.756653 1147.013916,557.756653 
z"/>
<path fill="#E9E9E9" opacity="1.000000" stroke="none" 
	d="
M1029.917603,526.982422 
	C1029.917847,515.329224 1029.791260,504.170715 1029.986572,493.017883 
	C1030.055786,489.065613 1030.394531,484.974335 1031.509766,481.213257 
	C1034.002686,472.806519 1040.991211,468.984894 1051.709595,469.494965 
	C1061.457520,469.958893 1066.992065,474.103058 1068.849487,483.036530 
	C1069.821655,487.711212 1069.934082,492.564606 1070.471191,497.684875 
	C1068.303345,497.684875 1066.728516,497.684875 1064.967285,497.684875 
	C1064.692993,494.330109 1064.458496,491.041962 1064.149170,487.760864 
	C1063.317627,478.937561 1058.683594,474.434479 1050.489380,474.440216 
	C1041.658813,474.446442 1036.405884,479.004608 1036.027466,488.094269 
	C1035.564331,499.220551 1035.712646,510.376923 1035.784058,521.519104 
	C1035.829712,528.663574 1035.627563,535.886780 1036.599976,542.927856 
	C1037.720215,551.037598 1042.338257,553.614502 1052.032104,552.989319 
	C1059.154907,552.529907 1063.307495,548.573425 1063.994751,541.454285 
	C1064.377808,537.486572 1064.603760,533.503723 1064.924561,529.206055 
	C1066.507080,529.206055 1068.078247,529.206055 1070.456665,529.206055 
	C1069.943604,534.843201 1069.836548,540.468018 1068.833252,545.928101 
	C1067.549927,552.911499 1062.614136,557.065186 1055.421631,558.130859 
	C1053.286499,558.447205 1051.110962,558.779907 1048.967773,558.705872 
	C1037.115356,558.296814 1030.968750,552.228271 1030.088257,539.961792 
	C1029.790894,535.818237 1029.961060,531.641113 1029.917603,526.982422 
z"/>
<path fill="#E5E5E5" opacity="1.000000" stroke="none" 
	d="
M981.459595,554.529297 
	C979.674683,556.162659 978.008179,557.420837 976.341675,558.679016 
	C975.849854,558.270752 975.357971,557.862488 974.866150,557.454224 
	C975.752258,554.012695 976.588867,550.557556 977.532471,547.131897 
	C984.238525,522.787598 991.068665,498.476654 997.578735,474.080170 
	C998.567444,470.374695 1000.106628,469.411041 1003.930420,470.545990 
	C1011.765381,499.202881 1019.666626,528.102539 1027.594482,557.099365 
	C1023.307678,558.549866 1021.221191,557.855774 1020.418579,553.554382 
	C1019.265503,547.375366 1017.661804,541.260010 1015.839172,535.242004 
	C1015.430664,533.893311 1013.350952,532.182678 1011.987244,532.133789 
	C1003.848328,531.842712 995.693726,531.989807 987.079224,531.989807 
	C985.229004,539.444153 983.403503,546.799133 981.459595,554.529297 
M997.789185,490.364868 
	C994.730347,502.041412 991.671509,513.717957 988.511597,525.780518 
	C997.045044,525.780518 1005.029724,525.780518 1013.552307,525.780518 
	C1009.590881,509.621674 1005.738770,493.909058 1001.886719,478.196442 
	C1001.539124,478.179810 1001.191528,478.163208 1000.843933,478.146576 
	C999.900940,481.954742 998.957947,485.762909 997.789185,490.364868 
z"/>
<path fill="#E5E5E5" opacity="1.000000" stroke="none" 
	d="
M839.935181,532.528320 
	C845.176636,513.042908 850.410950,493.981506 855.334961,474.840332 
	C856.375793,470.794098 857.930237,469.009583 862.611023,470.719788 
	C860.069763,480.092682 857.565918,489.493347 854.969421,498.868378 
	C849.826660,517.437317 844.680298,536.005859 839.357605,554.523376 
	C838.984009,555.822876 837.269104,557.302856 835.952576,557.564331 
	C835.087952,557.736084 833.153442,556.052368 832.826721,554.884033 
	C825.135193,527.379944 817.595947,499.833130 810.044495,472.289917 
	C809.919128,471.832642 809.987976,471.322113 809.943237,470.323456 
	C811.737061,470.243622 813.462219,470.166870 815.726440,470.066101 
	C822.269836,494.797241 828.769226,519.361938 835.268616,543.926636 
	C835.744995,543.950928 836.221436,543.975220 836.697815,543.999451 
	C837.737671,540.307617 838.777527,536.615845 839.935181,532.528320 
z"/>
<path fill="#E9E9E9" opacity="1.000000" stroke="none" 
	d="
M886.230957,539.998291 
	C886.231018,518.867004 886.231018,498.235229 886.231018,477.126587 
	C880.084229,477.126587 874.159058,477.126587 867.659912,477.126587 
	C867.552917,474.776764 867.466248,472.873871 867.359497,470.529175 
	C882.222351,470.529175 896.773804,470.529175 911.702637,470.529175 
	C911.702637,472.359985 911.702637,474.405334 911.702637,476.840454 
	C905.681030,476.840454 899.741455,476.840454 893.261597,476.840454 
	C893.261597,503.915680 893.261597,530.614502 893.261597,557.530457 
	C890.779785,557.530457 888.845520,557.530457 886.230957,557.530457 
	C886.230957,551.706360 886.230957,546.102112 886.230957,539.998291 
z"/>
<path fill="#E9E9E9" opacity="1.000000" stroke="none" 
	d="
M785.172607,496.000824 
	C785.172546,516.778564 785.172546,537.056274 785.172546,557.510864 
	C782.736694,557.510864 780.807007,557.510864 778.412964,557.510864 
	C778.412964,530.693787 778.412964,504.130951 778.412964,477.091156 
	C772.044739,477.091156 766.121216,477.091156 759.793213,477.091156 
	C759.793213,474.718811 759.793213,472.820343 759.793213,470.510223 
	C774.264771,470.510223 788.819824,470.510223 803.727417,470.510223 
	C803.727417,472.385284 803.727417,474.440887 803.727417,476.872467 
	C797.646545,476.872467 791.700806,476.872467 785.172607,476.872467 
	C785.172607,483.323700 785.172607,489.412262 785.172607,496.000824 
z"/>
<path fill="#FCFCFC" opacity="1.000000" stroke="none" 
	d="
M878.743713,260.691864 
	C881.016541,260.691895 882.818665,260.691895 884.811890,260.691895 
	C884.811890,264.932037 884.811890,268.717529 884.811890,273.308167 
	C880.905457,273.308167 877.011841,273.308167 873.118286,273.308167 
	C866.304382,273.308167 859.455994,272.884338 852.687073,273.436005 
	C846.773499,273.917969 842.574097,272.016266 838.949341,267.498230 
	C837.347839,265.501984 834.802795,264.262695 832.686096,262.679779 
	C833.069336,262.017120 833.452576,261.354492 833.835876,260.691833 
	C848.648254,260.691833 863.460693,260.691833 878.743713,260.691864 
z"/>
<path fill="#F8F8F8" opacity="1.000000" stroke="none" 
	d="
M801.178223,260.799072 
	C802.045349,264.724854 802.494080,268.564331 803.000000,272.893433 
	C789.813782,272.893433 777.292542,272.893433 764.532349,272.893433 
	C764.532349,269.018280 764.532349,265.244537 764.532349,260.712738 
	C776.606934,260.712738 788.683289,260.712738 801.178223,260.799072 
z"/>
<path fill="#141414" opacity="1.000000" stroke="none" 
	d="
M584.359253,405.999573 
	C584.359253,396.337402 584.236816,387.172272 584.459534,378.015564 
	C584.505859,376.108856 585.291138,373.612732 586.645996,372.436737 
	C605.757507,355.848694 625.025391,339.440796 644.263367,322.998535 
	C644.753845,322.579315 645.334045,322.264923 646.426147,321.528046 
	C646.426147,401.245758 646.426147,480.465607 646.426147,560.618591 
	C640.096924,555.262817 634.195618,550.310059 628.339111,545.305115 
	C614.813354,533.746155 601.354431,522.108215 587.755859,510.635742 
	C585.228821,508.503815 584.275818,506.259583 584.288025,502.951813 
	C584.406799,470.801422 584.359375,438.650421 584.359253,405.999573 
z"/>
<path fill="#151515" opacity="1.000000" stroke="none" 
	d="
M468.069824,240.780365 
	C516.708252,239.799194 552.122375,287.388123 534.739014,334.984467 
	C521.705383,370.671173 482.546387,388.355957 446.027863,375.664398 
	C411.584076,363.693817 392.486908,324.527985 403.822418,289.106323 
	C412.841431,260.923431 437.775421,242.040070 468.069824,240.780365 
M484.105835,267.273193 
	C482.819733,266.926056 481.541260,266.547150 480.246368,266.236603 
	C462.568726,261.997162 443.477570,269.188873 433.131409,283.975311 
	C422.455048,299.233826 421.985229,319.528290 431.955597,334.771576 
	C442.216675,350.459351 460.724792,358.374634 478.666046,354.748077 
	C498.394440,350.760284 513.356445,333.726501 514.899414,313.497559 
	C516.434631,293.370178 504.426849,275.036072 484.105835,267.273193 
z"/>
<path fill="#1B1B1B" opacity="1.000000" stroke="none" 
	d="
M1015.383911,383.223633 
	C1012.098694,393.229767 1008.936462,402.859283 1005.336731,413.821136 
	C986.827637,357.942841 968.720825,303.279114 950.279663,247.605896 
	C954.306152,247.605896 957.732239,247.248367 961.007141,247.795578 
	C962.188293,247.992935 963.415894,250.225327 963.930542,251.760895 
	C976.968140,290.663635 989.910767,329.598206 1002.882568,368.523041 
	C1003.557739,370.549042 1004.342346,372.538544 1005.422791,375.493774 
	C1009.192749,364.229797 1012.662170,353.912476 1016.099426,343.584412 
	C1025.986938,313.875183 1036.021973,284.213196 1045.593384,254.402405 
	C1047.322144,249.018173 1049.575806,246.439240 1055.257935,247.523254 
	C1056.540527,247.767914 1057.887817,247.672729 1060.182129,247.779388 
	C1045.201904,293.069641 1030.354370,337.958313 1015.383911,383.223633 
z"/>
<path fill="#1B1B1B" opacity="1.000000" stroke="none" 
	d="
M1037.571045,372.462830 
	C1032.918457,386.387726 1028.440063,399.954926 1023.895508,413.722595 
	C1019.878662,413.722595 1015.954224,413.722595 1011.442810,413.722595 
	C1012.050232,411.804199 1012.565369,410.106567 1013.123901,408.423370 
	C1029.817871,358.117767 1046.515625,307.813477 1063.219116,257.511047 
	C1063.375488,257.040131 1063.664673,256.612183 1063.811279,256.139252 
	C1066.826294,246.409485 1067.195801,246.194443 1078.449951,248.229492 
	C1064.862305,289.580444 1051.303833,330.842804 1037.571045,372.462830 
z"/>
<path fill="#1D1D1D" opacity="1.000000" stroke="none" 
	d="
M985.792480,261.322876 
	C993.003662,283.310608 1000.065308,304.930847 1007.179443,326.533813 
	C1011.923645,340.940155 1011.944214,341.179901 1005.101990,356.717133 
	C992.843384,319.985535 980.921814,284.263611 968.681152,247.585724 
	C972.595093,247.585724 975.990662,247.355774 979.320801,247.721542 
	C980.361206,247.835846 981.617065,249.398514 982.095337,250.574356 
	C983.471252,253.956635 984.500183,257.480072 985.792480,261.322876 
z"/>
<path fill="#171717" opacity="1.000000" stroke="none" 
	d="
M1149.136353,280.000183 
	C1149.136353,273.013367 1149.136353,266.526550 1149.136353,259.514282 
	C1135.440063,259.514282 1122.030151,259.514282 1108.240112,259.514282 
	C1108.240112,255.448441 1108.240112,251.901367 1108.240112,247.951736 
	C1145.260498,247.951736 1182.325806,247.951736 1219.767700,247.951736 
	C1219.767700,251.424942 1219.767700,254.980408 1219.767700,259.122223 
	C1200.414307,259.122223 1181.016113,259.122223 1160.950684,259.122223 
	C1160.950684,285.285950 1160.950684,310.879028 1160.950684,336.472076 
	C1160.950684,362.105713 1160.950684,387.739349 1160.950684,413.671753 
	C1157.042480,413.671753 1153.445801,413.671753 1149.136353,413.671753 
	C1149.136353,369.336365 1149.136353,324.918243 1149.136353,280.000183 
z"/>
<path fill="#1D1D1D" opacity="1.000000" stroke="none" 
	d="
M1167.020386,299.000000 
	C1167.020386,289.417084 1167.020386,280.334167 1167.020386,270.224365 
	C1171.130371,274.299866 1174.562866,277.527954 1177.744995,280.986542 
	C1178.510864,281.818970 1178.722290,283.415222 1178.723633,284.660614 
	C1178.767090,327.112915 1178.755737,369.565277 1178.738281,412.017609 
	C1178.738037,412.487152 1178.556152,412.956635 1178.403442,413.695068 
	C1174.787598,413.695068 1171.212036,413.695068 1167.020386,413.695068 
	C1167.020386,375.609863 1167.020386,337.554932 1167.020386,299.000000 
z"/>
<path fill="#1D1D1D" opacity="1.000000" stroke="none" 
	d="
M1201.999756,277.145050 
	C1199.005737,277.145050 1196.438110,276.757111 1194.029907,277.212738 
	C1184.012329,279.107941 1177.760864,274.034149 1172.673584,265.783569 
	C1188.419922,265.783569 1204.006958,265.783569 1219.883789,265.783569 
	C1219.883789,269.395325 1219.883789,272.961853 1219.883789,277.145050 
	C1214.033691,277.145050 1208.266479,277.145050 1201.999756,277.145050 
z"/>
<path fill="#1B1B1B" opacity="1.000000" stroke="none" 
	d="
M1109.483154,265.410461 
	C1120.875366,265.347809 1131.803833,265.347809 1142.940674,265.347809 
	C1142.940674,269.392761 1142.940674,272.851501 1142.940674,276.725494 
	C1131.496216,276.725494 1119.974121,276.725494 1107.433960,276.725494 
	C1107.970947,272.914948 1108.495239,269.194031 1109.483154,265.410461 
z"/>
<path fill="#161616" opacity="1.000000" stroke="none" 
	d="
M261.934204,315.638947 
	C259.537659,290.819489 275.026917,267.798157 301.257721,262.321381 
	C324.031769,257.566315 347.736267,271.315796 355.991302,294.008209 
	C363.926544,315.821442 354.353516,341.594696 334.231903,352.590729 
	C303.215851,369.540344 267.267914,351.383972 261.934204,315.638947 
M329.335571,334.872467 
	C346.774689,320.953857 344.777466,293.371033 325.585815,283.086182 
	C311.228607,275.392120 294.641754,278.949249 285.024567,291.784729 
	C275.961945,303.880035 277.335968,321.297333 288.230896,332.428284 
	C298.904480,343.333099 315.614258,344.518127 329.335571,334.872467 
z"/>
<path fill="#141414" opacity="1.000000" stroke="none" 
	d="
M386.206818,409.756653 
	C402.426544,419.535248 418.349670,429.102905 435.130768,439.186066 
	C411.925842,453.161163 389.415375,466.718048 366.237061,480.677124 
	C366.237061,452.882019 366.237061,425.898956 366.237061,397.843506 
	C373.024994,401.881165 379.467590,405.713409 386.206818,409.756653 
z"/>
<path fill="#161616" opacity="1.000000" stroke="none" 
	d="
M958.287598,498.725769 
	C957.063354,509.302948 951.877625,514.470581 941.770630,515.076355 
	C936.499573,515.392212 931.193909,515.132019 925.592407,515.132019 
	C925.592407,502.137299 925.592407,489.384552 925.592407,476.034088 
	C934.492126,475.889984 943.783447,473.880157 951.724854,479.992859 
	C957.606567,484.520111 959.530029,490.948151 958.287598,498.725769 
z"/>
<path fill="#141414" opacity="1.000000" stroke="none" 
	d="
M1197.988525,515.419434 
	C1195.046753,515.419495 1192.598999,515.419495 1189.882324,515.419495 
	C1189.882324,502.101562 1189.882324,489.355499 1189.882324,475.262115 
	C1197.018311,475.909943 1204.436646,475.580231 1211.252930,477.447876 
	C1220.450684,479.967987 1224.045776,488.857635 1222.263306,500.761292 
	C1220.942017,509.584015 1215.513672,514.383789 1205.952759,515.106934 
	C1203.468994,515.294739 1200.973022,515.319641 1197.988525,515.419434 
z"/>
<path fill="#1B1B1B" opacity="1.000000" stroke="none" 
	d="
M997.902100,489.967957 
	C998.957947,485.762909 999.900940,481.954742 1000.843933,478.146576 
	C1001.191528,478.163208 1001.539124,478.179810 1001.886719,478.196442 
	C1005.738770,493.909058 1009.590881,509.621674 1013.552307,525.780518 
	C1005.029724,525.780518 997.045044,525.780518 988.511597,525.780518 
	C991.671509,513.717957 994.730347,502.041412 997.902100,489.967957 
z"/>
<path fill="#F8F8F8" opacity="1.000000" stroke="none" 
	d="
M484.469543,267.432129 
	C504.426849,275.036072 516.434631,293.370178 514.899414,313.497559 
	C513.356445,333.726501 498.394440,350.760284 478.666046,354.748077 
	C460.724792,358.374634 442.216675,350.459351 431.955597,334.771576 
	C421.985229,319.528290 422.455048,299.233826 433.131409,283.975311 
	C443.477570,269.188873 462.568726,261.997162 480.246368,266.236603 
	C481.541260,266.547150 482.819733,266.926056 484.469543,267.432129 
M495.760345,292.873535 
	C491.093994,286.518005 485.196289,282.049438 477.412292,280.006073 
	C464.637054,276.652466 450.155853,282.407074 443.341278,293.839630 
	C436.046387,306.078003 437.597412,321.263214 447.205383,331.671295 
	C456.300720,341.524078 471.524384,344.249695 483.331848,338.493256 
	C499.187561,330.763275 506.571503,310.286774 495.760345,292.873535 
z"/>
<path fill="#F8F8F8" opacity="1.000000" stroke="none" 
	d="
M329.045898,335.087372 
	C315.614258,344.518127 298.904480,343.333099 288.230896,332.428284 
	C277.335968,321.297333 275.961945,303.880035 285.024567,291.784729 
	C294.641754,278.949249 311.228607,275.392120 325.585815,283.086182 
	C344.777466,293.371033 346.774689,320.953857 329.045898,335.087372 
M295.879608,300.572540 
	C291.842072,307.162598 291.747894,313.856995 296.087860,320.209259 
	C299.702332,325.499634 305.046082,328.073639 311.516266,327.566345 
	C319.382965,326.949493 325.678925,321.207001 327.075867,313.717926 
	C328.570374,305.705597 324.815277,298.084259 317.687805,294.663910 
	C310.111206,291.028046 302.555450,292.909668 295.879608,300.572540 
z"/>
<path fill="#141414" opacity="1.000000" stroke="none" 
	d="
M495.963898,293.180573 
	C506.571503,310.286774 499.187561,330.763275 483.331848,338.493256 
	C471.524384,344.249695 456.300720,341.524078 447.205383,331.671295 
	C437.597412,321.263214 436.046387,306.078003 443.341278,293.839630 
	C450.155853,282.407074 464.637054,276.652466 477.412292,280.006073 
	C485.196289,282.049438 491.093994,286.518005 495.963898,293.180573 
z"/>
<path fill="#171717" opacity="1.000000" stroke="none" 
	d="
M296.105652,300.277405 
	C302.555450,292.909668 310.111206,291.028046 317.687805,294.663910 
	C324.815277,298.084259 328.570374,305.705597 327.075867,313.717926 
	C325.678925,321.207001 319.382965,326.949493 311.516266,327.566345 
	C305.046082,328.073639 299.702332,325.499634 296.087860,320.209259 
	C291.747894,313.856995 291.842072,307.162598 296.105652,300.277405 
z"/>
</svg>